<?xml version="1.0" encoding="utf-8"?>
<!-- Generator: Adobe Illustrator 25.0.0, SVG Export Plug-In . SVG Version: 6.00 Build 0)  -->
<svg version="1.1" id="Слой_1" xmlns="http://www.w3.org/2000/svg" xmlns:xlink="http://www.w3.org/1999/xlink" x="0px" y="0px"
	 viewBox="0 0 53 76.9" style="enable-background:new 0 0 53 76.9;" xml:space="preserve">
<style type="text/css">
	.st0{fill:none;}
	.st1{fill:#FABC26;}
</style>
<g transform="translate(-54.068 -0.001)">
	<rect x="42" y="0" class="st0" width="76.9" height="76.9"/>
	<path class="st1" d="M104.6,44.1l-25.5-5.8c-7.6-1.7-12.4-9.3-10.7-16.9s9.3-12.4,16.9-10.7c7.6,1.7,12.4,9.3,10.7,16.9
		c-0.8,3.7-3.1,6.8-6.2,8.8l0,0c-0.1,0.1-0.1,0.2-0.1,0.3c0,0.2,0.1,0.3,0.3,0.3l11.3,2.6c0.3,0.1,0.5,0,0.7-0.3l0,0
		c8.2-10.8,6.1-26.3-4.8-34.5c-3.9-2.9-8.6-4.7-13.4-5c-0.1,0-0.8,0-1.1,0C67.1-0.2,54.3,12.2,54.1,27.7c-0.1,5.9,1.7,11.7,5.1,16.6
		l22.7,32.3c0.2,0.2,0.5,0.3,0.7,0.1c0,0,0.1-0.1,0.1-0.1L104.9,45c0.2-0.2,0.1-0.6-0.1-0.7C104.7,44.2,104.7,44.2,104.6,44.1"/>
</g>
</svg>
