<svg version="1.0" xmlns="http://www.w3.org/2000/svg" width="933.333" height="933.333" viewBox="0 0 700 700"><path d="M303.2 1c-11.5 1.7-22.8 10.4-27.7 21.3-1.5 3.5-4 15.1-7.5 35.2-4 23.8-5.7 31.3-8 36.3-4.3 9.2-10.4 14.5-25.2 22-6.8 3.5-17.8 9.7-24.3 13.7-14.2 8.8-21 11.1-31.7 10.2-6.2-.4-11.6-2.2-35.7-11.7-15.7-6.1-30.9-11.6-33.9-12-10.1-1.7-23.8 2.9-31 10.3-3.1 3.3-43.9 69.3-49.5 80.2-6 11.6-4.7 26.4 3.3 37.3 1.6 2.3 13.4 13.3 26.2 24.5 25 21.9 28.1 25.6 31.3 37.1 1.6 5.3 1.6 7.5.5 22.3-.9 11.5-1.1 21.5-.5 33.6 1.3 25.6 1.1 31.3-1.4 37.7-3.2 8.3-7.7 13.1-30.6 33.3-23.3 20.4-26.9 24-29.8 30.6-3 6.7-3.5 19-1 26.1 1 3 12.3 22.7 25.1 43.7 25.4 41.7 28.2 45.2 39 49.4 4.2 1.6 7.9 2.2 13.7 2.2 7.9 0 8.5-.2 38-11.9l30-11.9h9.5c10.9 0 14.2 1.2 29.4 10.9 4.9 3.1 14.8 8.6 22 12.3 21.9 11.1 27 17.7 31.1 39.9 1.3 7.1 2.5 14 2.8 15.4.3 1.4.3-2.9.1-9.5-.3-6.6-.6-37.2-.8-67.9l-.3-55.9-12.4-8.3c-15.1-10-26.4-19.7-36.5-31.2-20-23.1-33.8-51-40.6-82.2-1.9-9.2-2.2-13.3-2.2-34s.3-24.8 2.2-34c8.3-38.5 28.4-73.4 56.4-98.1 15.8-13.9 20.7-16.1 27.5-11.9 6 3.6 5.8.8 6.3 71.5.5 64.4.5 65 2.7 69.8 3.2 7 7.9 13.1 12.6 16.5 8.8 6.2 51.5 30.1 56.6 31.6 7.2 2.1 15.6 2 22.8-.3 3.2-1 16.8-8.2 30.3-16 27.7-16 33.9-21.1 38.1-31.8l2.4-5.8.5-65.1c.5-63.4.6-65.3 2.5-67.4 5-5.5 11.2-6.4 17.1-2.4 24.1 16.2 49 48 60.3 76.9 9.7 24.7 12.5 39.3 12.6 66 0 21.4-.7 27.7-5.5 46-11.4 43.6-40.2 81.9-79.2 105.3l-7.8 4.7V565c0 33.2-.5 64.3-1 70.4-.6 6-.9 11-.7 11.2.2.2 1.7-7.6 3.4-17.2 5-28.1 8.9-33.8 30.8-44.8 6.5-3.3 16.8-9.1 22.9-12.9 15.5-9.7 19.1-11.1 30.1-11.1 8.8 0 9.4.2 26 6.8 44.9 17.9 42.2 17 51.5 17 7.7.1 9.2-.2 15-3.1 3.6-1.8 8.4-5.1 10.7-7.5 3.8-3.9 44-68.4 49.9-79.9 6.1-12.2 4.3-28.8-4.4-39.7-1-1.3-11.9-11.2-24.2-22-12.3-10.8-23.9-21.6-25.6-23.9-1.8-2.3-4.2-6.8-5.5-10-1.9-5-2.2-7.2-1.9-16.3.5-14.1.5-49.8 0-64-.5-11.3-.4-11.6 2.9-18.6 3.8-8.3 6.7-11.3 33.1-34.3 10.2-8.9 19.9-18 21.7-20.2 7.5-9.4 9.6-24.8 5-35.9-1.3-3-12.3-21.9-24.5-42-24.6-40.3-28.2-44.9-38.9-49.1-4.3-1.7-7.8-2.2-13.8-2.2-7.8 0-8.7.3-36.2 11.1-15.5 6.1-30.3 11.7-32.8 12.3-6 1.5-17.2.6-22.9-1.9-2.4-1.1-9.5-5.1-15.8-8.9-6.2-3.9-16.8-9.8-23.5-13.2-14.3-7.3-21.7-14.2-25.2-23.6-1.1-3-4.3-18.6-7.1-34.7-4.2-23.7-5.7-30.5-8.1-35.5-3.7-7.7-11.8-15.3-19.7-18.5C398.6.6 397.8.6 353.5.4c-24.7-.1-47.4.1-50.3.6z"/><path d="M269 507.4c0 .2 2.9 2.9 6.5 6l6.4 5.7 3.2-1.6c1.7-.9 2.9-1.8 2.7-1.9-.7-.7-18.8-8.5-18.8-8.2zm-.9 137.2c0 1.1.3 1.4.6.6.3-.7.2-1.6-.1-1.9-.3-.4-.6.2-.5 1.3z"/></svg>