<?xml version="1.0" standalone="no"?>
<!DOCTYPE svg PUBLIC "-//W3C//DTD SVG 20010904//EN"
 "http://www.w3.org/TR/2001/REC-SVG-20010904/DTD/svg10.dtd">
<svg version="1.0" xmlns="http://www.w3.org/2000/svg"
 width="700.000000pt" height="700.000000pt" viewBox="0 0 700.000000 700.000000"
 preserveAspectRatio="xMidYMid meet">
<metadata>
Created by potrace 1.14, written by Peter Selinger 2001-2017
</metadata>
<g transform="translate(0.000000,700.000000) scale(0.100000,-0.100000)"
fill="#000000" stroke="none">
<path d="M3032 6990 c-115 -17 -228 -104 -277 -213 -15 -35 -40 -151 -75 -352
-40 -238 -57 -313 -80 -363 -43 -92 -104 -145 -252 -220 -68 -35 -178 -97
-243 -137 -142 -88 -210 -111 -317 -102 -62 4 -116 22 -357 117 -157 61 -309
116 -339 120 -101 17 -238 -29 -310 -103 -31 -33 -439 -693 -495 -802 -60
-116 -47 -264 33 -373 16 -23 134 -133 262 -245 250 -219 281 -256 313 -371
16 -53 16 -75 5 -223 -9 -115 -11 -215 -5 -336 13 -256 11 -313 -14 -377 -32
-83 -77 -131 -306 -333 -233 -204 -269 -240 -298 -306 -30 -67 -35 -190 -10
-261 10 -30 123 -227 251 -437 254 -417 282 -452 390 -494 42 -16 79 -22 137
-22 79 0 85 2 380 119 l300 119 95 0 c109 0 142 -12 294 -109 49 -31 148 -86
220 -123 219 -111 270 -177 311 -399 13 -71 25 -140 28 -154 3 -14 3 29 1 95
-3 66 -6 372 -8 679 l-3 559 -124 83 c-151 100 -264 197 -365 312 -200 231
-338 510 -406 822 -19 92 -22 133 -22 340 0 207 3 248 22 340 83 385 284 734
564 981 158 139 207 161 275 119 60 -36 58 -8 63 -715 5 -644 5 -650 27 -698
32 -70 79 -131 126 -165 88 -62 515 -301 566 -316 72 -21 156 -20 228 3 32 10
168 82 303 160 277 160 339 211 381 318 l24 58 5 651 c5 634 6 653 25 674 50
55 112 64 171 24 241 -162 490 -480 603 -769 97 -247 125 -393 126 -660 0
-214 -7 -277 -55 -460 -114 -436 -402 -819 -792 -1053 l-78 -47 0 -595 c0
-332 -5 -643 -10 -704 -6 -60 -9 -110 -7 -112 2 -2 17 76 34 172 50 281 89
338 308 448 65 33 168 91 229 129 155 97 191 111 301 111 88 0 94 -2 260 -68
449 -179 422 -170 515 -170 77 -1 92 2 150 31 36 18 84 51 107 75 38 39 440
684 499 799 61 122 43 288 -44 397 -10 13 -119 112 -242 220 -123 108 -239
216 -256 239 -18 23 -42 68 -55 100 -19 50 -22 72 -19 163 5 141 5 498 0 640
-5 113 -4 116 29 186 38 83 67 113 331 343 102 89 199 180 217 202 75 94 96
248 50 359 -13 30 -123 219 -245 420 -246 403 -282 449 -389 491 -43 17 -78
22 -138 22 -78 0 -87 -3 -362 -111 -155 -61 -303 -117 -328 -123 -60 -15 -172
-6 -229 19 -24 11 -95 51 -158 89 -62 39 -168 98 -235 132 -143 73 -217 142
-252 236 -11 30 -43 186 -71 347 -42 237 -57 305 -81 355 -37 77 -118 153
-197 185 -56 22 -64 22 -507 24 -247 1 -474 -1 -503 -6z"/>
<path d="M2690 1926 c0 -2 29 -29 65 -60 l64 -57 32 16 c17 9 29 18 27 19 -7
7 -188 85 -188 82z"/>
<path d="M2681 554 c0 -11 3 -14 6 -6 3 7 2 16 -1 19 -3 4 -6 -2 -5 -13z"/>
</g>
</svg>
