<svg version="1.1" id="Слой_1" xmlns="http://www.w3.org/2000/svg" x="0" y="0" viewBox="0 0 53 76.9" xml:space="preserve"><path fill="none" d="M42 0h76.9v76.9H42z" transform="translate(-54.068 -.001)"/><path d="M104.6 44.1l-25.5-5.8c-7.6-1.7-12.4-9.3-10.7-16.9S77.7 9 85.3 10.7C92.9 12.4 97.7 20 96 27.6c-.8 3.7-3.1 6.8-6.2 8.8-.1.1-.1.2-.1.3 0 .2.1.3.3.3l11.3 2.6c.3.1.5 0 .7-.3 8.2-10.8 6.1-26.3-4.8-34.5-3.9-2.9-8.6-4.7-13.4-5h-1.1c-15.6 0-28.4 12.4-28.6 27.9-.1 5.9 1.7 11.7 5.1 16.6l22.7 32.3c.2.2.5.3.7.1l.1-.1L104.9 45c.2-.2.1-.6-.1-.7l-.2-.2" fill="#fabc26" transform="translate(-54.068 -.001)"/></svg>